<svg width="39" height="40" viewBox="0 0 39 40" fill="none" xmlns="http://www.w3.org/2000/svg">
<path d="M17.9888 39.0291C9.4158 39.0291 5.02757 38.9709 2.55738 36.3845C0 33.7399 0 28.9739 0 19.5291C0 10.0842 0 5.31818 2.55738 2.67362C5.11475 2.77148e-07 9.64828 0 18.7153 0H19.5C38.4769 0 39 0.552161 39 19.5C39 38.4478 38.4478 39 19.5 39H17.9598L17.9888 39.0291Z" fill="black"/>
<path d="M7.9337 22.1446C7.9337 23.1327 7.67215 23.9173 7.14905 24.4985L8.4568 25.3994C9.21239 24.5567 9.59018 23.4814 9.59018 22.1446V16.0127H7.90464V22.1446H7.9337Z" fill="white"/>
<path d="M13.5424 16.0417C12.8159 16.0417 12.0893 16.158 11.3919 16.3614V17.6982C12.1184 17.4948 12.8159 17.3786 13.5424 17.3786C14.6758 17.3786 15.257 17.6692 15.257 18.2795V18.7154C14.8211 18.6282 14.298 18.5991 13.7168 18.5991C11.7987 18.5991 10.8397 19.2675 10.8397 20.6334C10.8397 21.9993 11.7406 22.6967 13.5133 22.6967C15.2861 22.6967 14.792 22.5514 15.3442 22.2318L16.0707 22.6967H16.9135V18.2504C16.9135 16.7973 15.7801 16.0708 13.5133 16.0708L13.5424 16.0417ZM15.2861 20.8078C14.8211 21.1565 14.2399 21.3309 13.5424 21.3309C12.8449 21.3309 12.5253 21.0693 12.5253 20.5753C12.5253 20.0812 12.9321 19.8197 13.7168 19.8197C14.5014 19.8197 14.8502 19.8488 15.257 19.9359V20.8078H15.2861Z" fill="white"/>
<path d="M22.9583 16.3323C22.4933 16.1289 21.9702 16.0127 21.389 16.0127C19.2385 16.0127 18.1923 17.0589 18.1923 19.1803C18.1923 21.3018 19.2966 22.6386 21.5343 22.6386C23.772 22.6386 23.6267 22.4933 24.6438 22.2317V13.6006H22.9583V16.3033V16.3323ZM22.9583 20.9821C22.5224 21.1565 21.9993 21.2146 21.418 21.2146C20.3718 21.2146 19.8487 20.5171 19.8487 19.1513C19.8487 17.7854 20.3718 17.4076 21.418 17.4076C22.4642 17.4076 22.5514 17.5238 22.9583 17.7563V20.9821Z" fill="white"/>
<path d="M29.1192 16.0417C26.9106 16.0417 25.8063 17.117 25.8063 19.2675C25.8063 21.4181 26.9978 22.6677 29.4099 22.6677C31.8219 22.6677 31.0954 22.6096 31.6766 22.4933V21.1565C31.0082 21.2727 30.3398 21.3309 29.6714 21.3309C28.2183 21.3309 27.4918 20.895 27.4918 19.9941H31.8219C32.1997 17.3495 31.2988 16.0417 29.1192 16.0417ZM27.4918 18.7735C27.579 17.8145 28.044 17.3495 28.9449 17.3495C29.8458 17.3495 30.3398 17.8145 30.2817 18.7735H27.5209H27.4918Z" fill="white"/>
</svg>
