<?xml version="1.0" encoding="utf-8"?>
<svg
  version="1.1"
  xmlns="http://www.w3.org/2000/svg"
  xmlns:xlink="http://www.w3.org/1999/xlink"
  width="1000"
  height="1000"
  viewBox="0 0 1000 1000"
  enable-background="new 0 0 1000 1000"
  xml:space="preserve"
>
  <g transform="translate(0,0) scale(1.0,1.0)">
    <svg width="1000" height="1000" viewBox="0 0 820 820" enable-background="new 0 0 1000 1000" xml:space="preserve">
      <rect x="0" y="0" width="820" height="820" fill="rgb(255,255,255)" opacity="1.0" />
      <rect x="281.0" y="81.0" width="18.0" height="18.0" fill="rgb(0,0,0)" opacity="1.0" />
      <rect x="321.0" y="81.0" width="18.0" height="18.0" fill="rgb(0,0,0)" opacity="1.0" />
      <rect x="341.0" y="81.0" width="18.0" height="18.0" fill="rgb(0,0,0)" opacity="1.0" />
      <rect x="401.0" y="81.0" width="18.0" height="18.0" fill="rgb(0,0,0)" opacity="1.0" />
      <rect x="421.0" y="81.0" width="18.0" height="18.0" fill="rgb(0,0,0)" opacity="1.0" />
      <rect x="461.0" y="81.0" width="18.0" height="18.0" fill="rgb(0,0,0)" opacity="1.0" />
      <rect x="501.0" y="81.0" width="18.0" height="18.0" fill="rgb(0,0,0)" opacity="1.0" />
      <rect x="561.0" y="81.0" width="18.0" height="18.0" fill="rgb(0,0,0)" opacity="1.0" />
      <rect x="301.0" y="101.0" width="18.0" height="18.0" fill="rgb(0,0,0)" opacity="1.0" />
      <rect x="381.0" y="101.0" width="18.0" height="18.0" fill="rgb(0,0,0)" opacity="1.0" />
      <rect x="401.0" y="101.0" width="18.0" height="18.0" fill="rgb(0,0,0)" opacity="1.0" />
      <rect x="481.0" y="101.0" width="18.0" height="18.0" fill="rgb(0,0,0)" opacity="1.0" />
      <rect x="501.0" y="101.0" width="18.0" height="18.0" fill="rgb(0,0,0)" opacity="1.0" />
      <rect x="521.0" y="101.0" width="18.0" height="18.0" fill="rgb(0,0,0)" opacity="1.0" />
      <rect x="241.0" y="121.0" width="18.0" height="18.0" fill="rgb(0,0,0)" opacity="1.0" />
      <rect x="261.0" y="121.0" width="18.0" height="18.0" fill="rgb(0,0,0)" opacity="1.0" />
      <rect x="341.0" y="121.0" width="18.0" height="18.0" fill="rgb(0,0,0)" opacity="1.0" />
      <rect x="381.0" y="121.0" width="18.0" height="18.0" fill="rgb(0,0,0)" opacity="1.0" />
      <rect x="401.0" y="121.0" width="18.0" height="18.0" fill="rgb(0,0,0)" opacity="1.0" />
      <rect x="421.0" y="121.0" width="18.0" height="18.0" fill="rgb(0,0,0)" opacity="1.0" />
      <rect x="441.0" y="121.0" width="18.0" height="18.0" fill="rgb(0,0,0)" opacity="1.0" />
      <rect x="481.0" y="121.0" width="18.0" height="18.0" fill="rgb(0,0,0)" opacity="1.0" />
      <rect x="501.0" y="121.0" width="18.0" height="18.0" fill="rgb(0,0,0)" opacity="1.0" />
      <rect x="521.0" y="121.0" width="18.0" height="18.0" fill="rgb(0,0,0)" opacity="1.0" />
      <rect x="541.0" y="121.0" width="18.0" height="18.0" fill="rgb(0,0,0)" opacity="1.0" />
      <rect x="241.0" y="141.0" width="18.0" height="18.0" fill="rgb(0,0,0)" opacity="1.0" />
      <rect x="261.0" y="141.0" width="18.0" height="18.0" fill="rgb(0,0,0)" opacity="1.0" />
      <rect x="321.0" y="141.0" width="18.0" height="18.0" fill="rgb(0,0,0)" opacity="1.0" />
      <rect x="401.0" y="141.0" width="18.0" height="18.0" fill="rgb(0,0,0)" opacity="1.0" />
      <rect x="441.0" y="141.0" width="18.0" height="18.0" fill="rgb(0,0,0)" opacity="1.0" />
      <rect x="481.0" y="141.0" width="18.0" height="18.0" fill="rgb(0,0,0)" opacity="1.0" />
      <rect x="521.0" y="141.0" width="18.0" height="18.0" fill="rgb(0,0,0)" opacity="1.0" />
      <rect x="321.0" y="161.0" width="18.0" height="18.0" fill="rgb(0,0,0)" opacity="1.0" />
      <rect x="341.0" y="161.0" width="18.0" height="18.0" fill="rgb(0,0,0)" opacity="1.0" />
      <rect x="361.0" y="161.0" width="18.0" height="18.0" fill="rgb(0,0,0)" opacity="1.0" />
      <rect x="381.0" y="161.0" width="18.0" height="18.0" fill="rgb(0,0,0)" opacity="1.0" />
      <rect x="401.0" y="161.0" width="18.0" height="18.0" fill="rgb(0,0,0)" opacity="1.0" />
      <rect x="421.0" y="161.0" width="18.0" height="18.0" fill="rgb(0,0,0)" opacity="1.0" />
      <rect x="441.0" y="161.0" width="18.0" height="18.0" fill="rgb(0,0,0)" opacity="1.0" />
      <rect x="461.0" y="161.0" width="18.0" height="18.0" fill="rgb(0,0,0)" opacity="1.0" />
      <rect x="501.0" y="161.0" width="18.0" height="18.0" fill="rgb(0,0,0)" opacity="1.0" />
      <rect x="521.0" y="161.0" width="18.0" height="18.0" fill="rgb(0,0,0)" opacity="1.0" />
      <rect x="281.0" y="181.0" width="18.0" height="18.0" fill="rgb(0,0,0)" opacity="1.0" />
      <rect x="301.0" y="181.0" width="18.0" height="18.0" fill="rgb(0,0,0)" opacity="1.0" />
      <rect x="361.0" y="181.0" width="18.0" height="18.0" fill="rgb(0,0,0)" opacity="1.0" />
      <rect x="381.0" y="181.0" width="18.0" height="18.0" fill="rgb(0,0,0)" opacity="1.0" />
      <rect x="401.0" y="181.0" width="18.0" height="18.0" fill="rgb(0,0,0)" opacity="1.0" />
      <rect x="461.0" y="181.0" width="18.0" height="18.0" fill="rgb(0,0,0)" opacity="1.0" />
      <rect x="501.0" y="181.0" width="18.0" height="18.0" fill="rgb(0,0,0)" opacity="1.0" />
      <rect x="561.0" y="181.0" width="18.0" height="18.0" fill="rgb(0,0,0)" opacity="1.0" />
      <rect x="241.0" y="201.0" width="18.0" height="18.0" fill="rgb(0,0,0)" opacity="1.0" />
      <rect x="281.0" y="201.0" width="18.0" height="18.0" fill="rgb(0,0,0)" opacity="1.0" />
      <rect x="321.0" y="201.0" width="18.0" height="18.0" fill="rgb(0,0,0)" opacity="1.0" />
      <rect x="361.0" y="201.0" width="18.0" height="18.0" fill="rgb(0,0,0)" opacity="1.0" />
      <rect x="401.0" y="201.0" width="18.0" height="18.0" fill="rgb(0,0,0)" opacity="1.0" />
      <rect x="441.0" y="201.0" width="18.0" height="18.0" fill="rgb(0,0,0)" opacity="1.0" />
      <rect x="481.0" y="201.0" width="18.0" height="18.0" fill="rgb(0,0,0)" opacity="1.0" />
      <rect x="521.0" y="201.0" width="18.0" height="18.0" fill="rgb(0,0,0)" opacity="1.0" />
      <rect x="561.0" y="201.0" width="18.0" height="18.0" fill="rgb(0,0,0)" opacity="1.0" />
      <rect x="261.0" y="221.0" width="18.0" height="18.0" fill="rgb(0,0,0)" opacity="1.0" />
      <rect x="301.0" y="221.0" width="18.0" height="18.0" fill="rgb(0,0,0)" opacity="1.0" />
      <rect x="321.0" y="221.0" width="18.0" height="18.0" fill="rgb(0,0,0)" opacity="1.0" />
      <rect x="361.0" y="221.0" width="18.0" height="18.0" fill="rgb(0,0,0)" opacity="1.0" />
      <rect x="381.0" y="221.0" width="18.0" height="18.0" fill="rgb(0,0,0)" opacity="1.0" />
      <rect x="401.0" y="221.0" width="18.0" height="18.0" fill="rgb(0,0,0)" opacity="1.0" />
      <rect x="461.0" y="221.0" width="18.0" height="18.0" fill="rgb(0,0,0)" opacity="1.0" />
      <rect x="521.0" y="221.0" width="18.0" height="18.0" fill="rgb(0,0,0)" opacity="1.0" />
      <rect x="541.0" y="221.0" width="18.0" height="18.0" fill="rgb(0,0,0)" opacity="1.0" />
      <rect x="561.0" y="221.0" width="18.0" height="18.0" fill="rgb(0,0,0)" opacity="1.0" />
      <rect x="141.0" y="241.0" width="18.0" height="18.0" fill="rgb(0,0,0)" opacity="1.0" />
      <rect x="161.0" y="241.0" width="18.0" height="18.0" fill="rgb(0,0,0)" opacity="1.0" />
      <rect x="201.0" y="241.0" width="18.0" height="18.0" fill="rgb(0,0,0)" opacity="1.0" />
      <rect x="221.0" y="241.0" width="18.0" height="18.0" fill="rgb(0,0,0)" opacity="1.0" />
      <rect x="261.0" y="241.0" width="18.0" height="18.0" fill="rgb(0,0,0)" opacity="1.0" />
      <rect x="281.0" y="241.0" width="18.0" height="18.0" fill="rgb(0,0,0)" opacity="1.0" />
      <rect x="301.0" y="241.0" width="18.0" height="18.0" fill="rgb(0,0,0)" opacity="1.0" />
      <rect x="321.0" y="241.0" width="18.0" height="18.0" fill="rgb(0,0,0)" opacity="1.0" />
      <rect x="341.0" y="241.0" width="18.0" height="18.0" fill="rgb(0,0,0)" opacity="1.0" />
      <rect x="361.0" y="241.0" width="18.0" height="18.0" fill="rgb(0,0,0)" opacity="1.0" />
      <rect x="401.0" y="241.0" width="18.0" height="18.0" fill="rgb(0,0,0)" opacity="1.0" />
      <rect x="461.0" y="241.0" width="18.0" height="18.0" fill="rgb(0,0,0)" opacity="1.0" />
      <rect x="501.0" y="241.0" width="18.0" height="18.0" fill="rgb(0,0,0)" opacity="1.0" />
      <rect x="661.0" y="241.0" width="18.0" height="18.0" fill="rgb(0,0,0)" opacity="1.0" />
      <rect x="681.0" y="241.0" width="18.0" height="18.0" fill="rgb(0,0,0)" opacity="1.0" />
      <rect x="81.0" y="261.0" width="18.0" height="18.0" fill="rgb(0,0,0)" opacity="1.0" />
      <rect x="101.0" y="261.0" width="18.0" height="18.0" fill="rgb(0,0,0)" opacity="1.0" />
      <rect x="161.0" y="261.0" width="18.0" height="18.0" fill="rgb(0,0,0)" opacity="1.0" />
      <rect x="181.0" y="261.0" width="18.0" height="18.0" fill="rgb(0,0,0)" opacity="1.0" />
      <rect x="241.0" y="261.0" width="18.0" height="18.0" fill="rgb(0,0,0)" opacity="1.0" />
      <rect x="261.0" y="261.0" width="18.0" height="18.0" fill="rgb(0,0,0)" opacity="1.0" />
      <rect x="281.0" y="261.0" width="18.0" height="18.0" fill="rgb(0,0,0)" opacity="1.0" />
      <rect x="321.0" y="261.0" width="18.0" height="18.0" fill="rgb(0,0,0)" opacity="1.0" />
      <rect x="341.0" y="261.0" width="18.0" height="18.0" fill="rgb(0,0,0)" opacity="1.0" />
      <rect x="361.0" y="261.0" width="18.0" height="18.0" fill="rgb(0,0,0)" opacity="1.0" />
      <rect x="381.0" y="261.0" width="18.0" height="18.0" fill="rgb(0,0,0)" opacity="1.0" />
      <rect x="401.0" y="261.0" width="18.0" height="18.0" fill="rgb(0,0,0)" opacity="1.0" />
      <rect x="421.0" y="261.0" width="18.0" height="18.0" fill="rgb(0,0,0)" opacity="1.0" />
      <rect x="441.0" y="261.0" width="18.0" height="18.0" fill="rgb(0,0,0)" opacity="1.0" />
      <rect x="481.0" y="261.0" width="18.0" height="18.0" fill="rgb(0,0,0)" opacity="1.0" />
      <rect x="521.0" y="261.0" width="18.0" height="18.0" fill="rgb(0,0,0)" opacity="1.0" />
      <rect x="561.0" y="261.0" width="18.0" height="18.0" fill="rgb(0,0,0)" opacity="1.0" />
      <rect x="601.0" y="261.0" width="18.0" height="18.0" fill="rgb(0,0,0)" opacity="1.0" />
      <rect x="621.0" y="261.0" width="18.0" height="18.0" fill="rgb(0,0,0)" opacity="1.0" />
      <rect x="641.0" y="261.0" width="18.0" height="18.0" fill="rgb(0,0,0)" opacity="1.0" />
      <rect x="661.0" y="261.0" width="18.0" height="18.0" fill="rgb(0,0,0)" opacity="1.0" />
      <rect x="681.0" y="261.0" width="18.0" height="18.0" fill="rgb(0,0,0)" opacity="1.0" />
      <rect x="701.0" y="261.0" width="18.0" height="18.0" fill="rgb(0,0,0)" opacity="1.0" />
      <rect x="121.0" y="281.0" width="18.0" height="18.0" fill="rgb(0,0,0)" opacity="1.0" />
      <rect x="181.0" y="281.0" width="18.0" height="18.0" fill="rgb(0,0,0)" opacity="1.0" />
      <rect x="201.0" y="281.0" width="18.0" height="18.0" fill="rgb(0,0,0)" opacity="1.0" />
      <rect x="301.0" y="281.0" width="18.0" height="18.0" fill="rgb(0,0,0)" opacity="1.0" />
      <rect x="321.0" y="281.0" width="18.0" height="18.0" fill="rgb(0,0,0)" opacity="1.0" />
      <rect x="441.0" y="281.0" width="18.0" height="18.0" fill="rgb(0,0,0)" opacity="1.0" />
      <rect x="461.0" y="281.0" width="18.0" height="18.0" fill="rgb(0,0,0)" opacity="1.0" />
      <rect x="501.0" y="281.0" width="18.0" height="18.0" fill="rgb(0,0,0)" opacity="1.0" />
      <rect x="561.0" y="281.0" width="18.0" height="18.0" fill="rgb(0,0,0)" opacity="1.0" />
      <rect x="581.0" y="281.0" width="18.0" height="18.0" fill="rgb(0,0,0)" opacity="1.0" />
      <rect x="601.0" y="281.0" width="18.0" height="18.0" fill="rgb(0,0,0)" opacity="1.0" />
      <rect x="641.0" y="281.0" width="18.0" height="18.0" fill="rgb(0,0,0)" opacity="1.0" />
      <rect x="701.0" y="281.0" width="18.0" height="18.0" fill="rgb(0,0,0)" opacity="1.0" />
      <rect x="101.0" y="301.0" width="18.0" height="18.0" fill="rgb(0,0,0)" opacity="1.0" />
      <rect x="121.0" y="301.0" width="18.0" height="18.0" fill="rgb(0,0,0)" opacity="1.0" />
      <rect x="241.0" y="301.0" width="18.0" height="18.0" fill="rgb(0,0,0)" opacity="1.0" />
      <rect x="281.0" y="301.0" width="18.0" height="18.0" fill="rgb(0,0,0)" opacity="1.0" />
      <rect x="521.0" y="301.0" width="18.0" height="18.0" fill="rgb(0,0,0)" opacity="1.0" />
      <rect x="581.0" y="301.0" width="18.0" height="18.0" fill="rgb(0,0,0)" opacity="1.0" />
      <rect x="601.0" y="301.0" width="18.0" height="18.0" fill="rgb(0,0,0)" opacity="1.0" />
      <rect x="621.0" y="301.0" width="18.0" height="18.0" fill="rgb(0,0,0)" opacity="1.0" />
      <rect x="641.0" y="301.0" width="18.0" height="18.0" fill="rgb(0,0,0)" opacity="1.0" />
      <rect x="681.0" y="301.0" width="18.0" height="18.0" fill="rgb(0,0,0)" opacity="1.0" />
      <rect x="721.0" y="301.0" width="18.0" height="18.0" fill="rgb(0,0,0)" opacity="1.0" />
      <rect x="101.0" y="321.0" width="18.0" height="18.0" fill="rgb(0,0,0)" opacity="1.0" />
      <rect x="161.0" y="321.0" width="18.0" height="18.0" fill="rgb(0,0,0)" opacity="1.0" />
      <rect x="201.0" y="321.0" width="18.0" height="18.0" fill="rgb(0,0,0)" opacity="1.0" />
      <rect x="221.0" y="321.0" width="18.0" height="18.0" fill="rgb(0,0,0)" opacity="1.0" />
      <rect x="261.0" y="321.0" width="18.0" height="18.0" fill="rgb(0,0,0)" opacity="1.0" />
      <rect x="521.0" y="321.0" width="18.0" height="18.0" fill="rgb(0,0,0)" opacity="1.0" />
      <rect x="541.0" y="321.0" width="18.0" height="18.0" fill="rgb(0,0,0)" opacity="1.0" />
      <rect x="561.0" y="321.0" width="18.0" height="18.0" fill="rgb(0,0,0)" opacity="1.0" />
      <rect x="581.0" y="321.0" width="18.0" height="18.0" fill="rgb(0,0,0)" opacity="1.0" />
      <rect x="601.0" y="321.0" width="18.0" height="18.0" fill="rgb(0,0,0)" opacity="1.0" />
      <rect x="621.0" y="321.0" width="18.0" height="18.0" fill="rgb(0,0,0)" opacity="1.0" />
      <rect x="661.0" y="321.0" width="18.0" height="18.0" fill="rgb(0,0,0)" opacity="1.0" />
      <rect x="701.0" y="321.0" width="18.0" height="18.0" fill="rgb(0,0,0)" opacity="1.0" />
      <rect x="721.0" y="321.0" width="18.0" height="18.0" fill="rgb(0,0,0)" opacity="1.0" />
      <rect x="81.0" y="341.0" width="18.0" height="18.0" fill="rgb(0,0,0)" opacity="1.0" />
      <rect x="141.0" y="341.0" width="18.0" height="18.0" fill="rgb(0,0,0)" opacity="1.0" />
      <rect x="161.0" y="341.0" width="18.0" height="18.0" fill="rgb(0,0,0)" opacity="1.0" />
      <rect x="181.0" y="341.0" width="18.0" height="18.0" fill="rgb(0,0,0)" opacity="1.0" />
      <rect x="261.0" y="341.0" width="18.0" height="18.0" fill="rgb(0,0,0)" opacity="1.0" />
      <rect x="541.0" y="341.0" width="18.0" height="18.0" fill="rgb(0,0,0)" opacity="1.0" />
      <rect x="561.0" y="341.0" width="18.0" height="18.0" fill="rgb(0,0,0)" opacity="1.0" />
      <rect x="581.0" y="341.0" width="18.0" height="18.0" fill="rgb(0,0,0)" opacity="1.0" />
      <rect x="601.0" y="341.0" width="18.0" height="18.0" fill="rgb(0,0,0)" opacity="1.0" />
      <rect x="621.0" y="341.0" width="18.0" height="18.0" fill="rgb(0,0,0)" opacity="1.0" />
      <rect x="641.0" y="341.0" width="18.0" height="18.0" fill="rgb(0,0,0)" opacity="1.0" />
      <rect x="661.0" y="341.0" width="18.0" height="18.0" fill="rgb(0,0,0)" opacity="1.0" />
      <rect x="681.0" y="341.0" width="18.0" height="18.0" fill="rgb(0,0,0)" opacity="1.0" />
      <rect x="701.0" y="341.0" width="18.0" height="18.0" fill="rgb(0,0,0)" opacity="1.0" />
      <rect x="721.0" y="341.0" width="18.0" height="18.0" fill="rgb(0,0,0)" opacity="1.0" />
      <rect x="81.0" y="361.0" width="18.0" height="18.0" fill="rgb(0,0,0)" opacity="1.0" />
      <rect x="101.0" y="361.0" width="18.0" height="18.0" fill="rgb(0,0,0)" opacity="1.0" />
      <rect x="121.0" y="361.0" width="18.0" height="18.0" fill="rgb(0,0,0)" opacity="1.0" />
      <rect x="141.0" y="361.0" width="18.0" height="18.0" fill="rgb(0,0,0)" opacity="1.0" />
      <rect x="161.0" y="361.0" width="18.0" height="18.0" fill="rgb(0,0,0)" opacity="1.0" />
      <rect x="181.0" y="361.0" width="18.0" height="18.0" fill="rgb(0,0,0)" opacity="1.0" />
      <rect x="201.0" y="361.0" width="18.0" height="18.0" fill="rgb(0,0,0)" opacity="1.0" />
      <rect x="221.0" y="361.0" width="18.0" height="18.0" fill="rgb(0,0,0)" opacity="1.0" />
      <rect x="261.0" y="361.0" width="18.0" height="18.0" fill="rgb(0,0,0)" opacity="1.0" />
      <rect x="281.0" y="361.0" width="18.0" height="18.0" fill="rgb(0,0,0)" opacity="1.0" />
      <rect x="521.0" y="361.0" width="18.0" height="18.0" fill="rgb(0,0,0)" opacity="1.0" />
      <rect x="541.0" y="361.0" width="18.0" height="18.0" fill="rgb(0,0,0)" opacity="1.0" />
      <rect x="561.0" y="361.0" width="18.0" height="18.0" fill="rgb(0,0,0)" opacity="1.0" />
      <rect x="621.0" y="361.0" width="18.0" height="18.0" fill="rgb(0,0,0)" opacity="1.0" />
      <rect x="101.0" y="381.0" width="18.0" height="18.0" fill="rgb(0,0,0)" opacity="1.0" />
      <rect x="121.0" y="381.0" width="18.0" height="18.0" fill="rgb(0,0,0)" opacity="1.0" />
      <rect x="141.0" y="381.0" width="18.0" height="18.0" fill="rgb(0,0,0)" opacity="1.0" />
      <rect x="161.0" y="381.0" width="18.0" height="18.0" fill="rgb(0,0,0)" opacity="1.0" />
      <rect x="221.0" y="381.0" width="18.0" height="18.0" fill="rgb(0,0,0)" opacity="1.0" />
      <rect x="241.0" y="381.0" width="18.0" height="18.0" fill="rgb(0,0,0)" opacity="1.0" />
      <rect x="541.0" y="381.0" width="18.0" height="18.0" fill="rgb(0,0,0)" opacity="1.0" />
      <rect x="641.0" y="381.0" width="18.0" height="18.0" fill="rgb(0,0,0)" opacity="1.0" />
      <rect x="681.0" y="381.0" width="18.0" height="18.0" fill="rgb(0,0,0)" opacity="1.0" />
      <rect x="121.0" y="401.0" width="18.0" height="18.0" fill="rgb(0,0,0)" opacity="1.0" />
      <rect x="141.0" y="401.0" width="18.0" height="18.0" fill="rgb(0,0,0)" opacity="1.0" />
      <rect x="161.0" y="401.0" width="18.0" height="18.0" fill="rgb(0,0,0)" opacity="1.0" />
      <rect x="201.0" y="401.0" width="18.0" height="18.0" fill="rgb(0,0,0)" opacity="1.0" />
      <rect x="221.0" y="401.0" width="18.0" height="18.0" fill="rgb(0,0,0)" opacity="1.0" />
      <rect x="281.0" y="401.0" width="18.0" height="18.0" fill="rgb(0,0,0)" opacity="1.0" />
      <rect x="541.0" y="401.0" width="18.0" height="18.0" fill="rgb(0,0,0)" opacity="1.0" />
      <rect x="561.0" y="401.0" width="18.0" height="18.0" fill="rgb(0,0,0)" opacity="1.0" />
      <rect x="581.0" y="401.0" width="18.0" height="18.0" fill="rgb(0,0,0)" opacity="1.0" />
      <rect x="621.0" y="401.0" width="18.0" height="18.0" fill="rgb(0,0,0)" opacity="1.0" />
      <rect x="81.0" y="421.0" width="18.0" height="18.0" fill="rgb(0,0,0)" opacity="1.0" />
      <rect x="141.0" y="421.0" width="18.0" height="18.0" fill="rgb(0,0,0)" opacity="1.0" />
      <rect x="221.0" y="421.0" width="18.0" height="18.0" fill="rgb(0,0,0)" opacity="1.0" />
      <rect x="241.0" y="421.0" width="18.0" height="18.0" fill="rgb(0,0,0)" opacity="1.0" />
      <rect x="261.0" y="421.0" width="18.0" height="18.0" fill="rgb(0,0,0)" opacity="1.0" />
      <rect x="281.0" y="421.0" width="18.0" height="18.0" fill="rgb(0,0,0)" opacity="1.0" />
      <rect x="521.0" y="421.0" width="18.0" height="18.0" fill="rgb(0,0,0)" opacity="1.0" />
      <rect x="541.0" y="421.0" width="18.0" height="18.0" fill="rgb(0,0,0)" opacity="1.0" />
      <rect x="561.0" y="421.0" width="18.0" height="18.0" fill="rgb(0,0,0)" opacity="1.0" />
      <rect x="581.0" y="421.0" width="18.0" height="18.0" fill="rgb(0,0,0)" opacity="1.0" />
      <rect x="601.0" y="421.0" width="18.0" height="18.0" fill="rgb(0,0,0)" opacity="1.0" />
      <rect x="621.0" y="421.0" width="18.0" height="18.0" fill="rgb(0,0,0)" opacity="1.0" />
      <rect x="661.0" y="421.0" width="18.0" height="18.0" fill="rgb(0,0,0)" opacity="1.0" />
      <rect x="681.0" y="421.0" width="18.0" height="18.0" fill="rgb(0,0,0)" opacity="1.0" />
      <rect x="721.0" y="421.0" width="18.0" height="18.0" fill="rgb(0,0,0)" opacity="1.0" />
      <rect x="81.0" y="441.0" width="18.0" height="18.0" fill="rgb(0,0,0)" opacity="1.0" />
      <rect x="101.0" y="441.0" width="18.0" height="18.0" fill="rgb(0,0,0)" opacity="1.0" />
      <rect x="161.0" y="441.0" width="18.0" height="18.0" fill="rgb(0,0,0)" opacity="1.0" />
      <rect x="201.0" y="441.0" width="18.0" height="18.0" fill="rgb(0,0,0)" opacity="1.0" />
      <rect x="221.0" y="441.0" width="18.0" height="18.0" fill="rgb(0,0,0)" opacity="1.0" />
      <rect x="241.0" y="441.0" width="18.0" height="18.0" fill="rgb(0,0,0)" opacity="1.0" />
      <rect x="541.0" y="441.0" width="18.0" height="18.0" fill="rgb(0,0,0)" opacity="1.0" />
      <rect x="601.0" y="441.0" width="18.0" height="18.0" fill="rgb(0,0,0)" opacity="1.0" />
      <rect x="621.0" y="441.0" width="18.0" height="18.0" fill="rgb(0,0,0)" opacity="1.0" />
      <rect x="681.0" y="441.0" width="18.0" height="18.0" fill="rgb(0,0,0)" opacity="1.0" />
      <rect x="81.0" y="461.0" width="18.0" height="18.0" fill="rgb(0,0,0)" opacity="1.0" />
      <rect x="121.0" y="461.0" width="18.0" height="18.0" fill="rgb(0,0,0)" opacity="1.0" />
      <rect x="141.0" y="461.0" width="18.0" height="18.0" fill="rgb(0,0,0)" opacity="1.0" />
      <rect x="161.0" y="461.0" width="18.0" height="18.0" fill="rgb(0,0,0)" opacity="1.0" />
      <rect x="221.0" y="461.0" width="18.0" height="18.0" fill="rgb(0,0,0)" opacity="1.0" />
      <rect x="241.0" y="461.0" width="18.0" height="18.0" fill="rgb(0,0,0)" opacity="1.0" />
      <rect x="261.0" y="461.0" width="18.0" height="18.0" fill="rgb(0,0,0)" opacity="1.0" />
      <rect x="281.0" y="461.0" width="18.0" height="18.0" fill="rgb(0,0,0)" opacity="1.0" />
      <rect x="541.0" y="461.0" width="18.0" height="18.0" fill="rgb(0,0,0)" opacity="1.0" />
      <rect x="581.0" y="461.0" width="18.0" height="18.0" fill="rgb(0,0,0)" opacity="1.0" />
      <rect x="621.0" y="461.0" width="18.0" height="18.0" fill="rgb(0,0,0)" opacity="1.0" />
      <rect x="661.0" y="461.0" width="18.0" height="18.0" fill="rgb(0,0,0)" opacity="1.0" />
      <rect x="701.0" y="461.0" width="18.0" height="18.0" fill="rgb(0,0,0)" opacity="1.0" />
      <rect x="101.0" y="481.0" width="18.0" height="18.0" fill="rgb(0,0,0)" opacity="1.0" />
      <rect x="121.0" y="481.0" width="18.0" height="18.0" fill="rgb(0,0,0)" opacity="1.0" />
      <rect x="141.0" y="481.0" width="18.0" height="18.0" fill="rgb(0,0,0)" opacity="1.0" />
      <rect x="161.0" y="481.0" width="18.0" height="18.0" fill="rgb(0,0,0)" opacity="1.0" />
      <rect x="201.0" y="481.0" width="18.0" height="18.0" fill="rgb(0,0,0)" opacity="1.0" />
      <rect x="221.0" y="481.0" width="18.0" height="18.0" fill="rgb(0,0,0)" opacity="1.0" />
      <rect x="561.0" y="481.0" width="18.0" height="18.0" fill="rgb(0,0,0)" opacity="1.0" />
      <rect x="601.0" y="481.0" width="18.0" height="18.0" fill="rgb(0,0,0)" opacity="1.0" />
      <rect x="621.0" y="481.0" width="18.0" height="18.0" fill="rgb(0,0,0)" opacity="1.0" />
      <rect x="641.0" y="481.0" width="18.0" height="18.0" fill="rgb(0,0,0)" opacity="1.0" />
      <rect x="661.0" y="481.0" width="18.0" height="18.0" fill="rgb(0,0,0)" opacity="1.0" />
      <rect x="701.0" y="481.0" width="18.0" height="18.0" fill="rgb(0,0,0)" opacity="1.0" />
      <rect x="81.0" y="501.0" width="18.0" height="18.0" fill="rgb(0,0,0)" opacity="1.0" />
      <rect x="121.0" y="501.0" width="18.0" height="18.0" fill="rgb(0,0,0)" opacity="1.0" />
      <rect x="141.0" y="501.0" width="18.0" height="18.0" fill="rgb(0,0,0)" opacity="1.0" />
      <rect x="181.0" y="501.0" width="18.0" height="18.0" fill="rgb(0,0,0)" opacity="1.0" />
      <rect x="221.0" y="501.0" width="18.0" height="18.0" fill="rgb(0,0,0)" opacity="1.0" />
      <rect x="261.0" y="501.0" width="18.0" height="18.0" fill="rgb(0,0,0)" opacity="1.0" />
      <rect x="521.0" y="501.0" width="18.0" height="18.0" fill="rgb(0,0,0)" opacity="1.0" />
      <rect x="541.0" y="501.0" width="18.0" height="18.0" fill="rgb(0,0,0)" opacity="1.0" />
      <rect x="561.0" y="501.0" width="18.0" height="18.0" fill="rgb(0,0,0)" opacity="1.0" />
      <rect x="641.0" y="501.0" width="18.0" height="18.0" fill="rgb(0,0,0)" opacity="1.0" />
      <rect x="661.0" y="501.0" width="18.0" height="18.0" fill="rgb(0,0,0)" opacity="1.0" />
      <rect x="681.0" y="501.0" width="18.0" height="18.0" fill="rgb(0,0,0)" opacity="1.0" />
      <rect x="701.0" y="501.0" width="18.0" height="18.0" fill="rgb(0,0,0)" opacity="1.0" />
      <rect x="721.0" y="501.0" width="18.0" height="18.0" fill="rgb(0,0,0)" opacity="1.0" />
      <rect x="81.0" y="521.0" width="18.0" height="18.0" fill="rgb(0,0,0)" opacity="1.0" />
      <rect x="141.0" y="521.0" width="18.0" height="18.0" fill="rgb(0,0,0)" opacity="1.0" />
      <rect x="181.0" y="521.0" width="18.0" height="18.0" fill="rgb(0,0,0)" opacity="1.0" />
      <rect x="201.0" y="521.0" width="18.0" height="18.0" fill="rgb(0,0,0)" opacity="1.0" />
      <rect x="221.0" y="521.0" width="18.0" height="18.0" fill="rgb(0,0,0)" opacity="1.0" />
      <rect x="241.0" y="521.0" width="18.0" height="18.0" fill="rgb(0,0,0)" opacity="1.0" />
      <rect x="261.0" y="521.0" width="18.0" height="18.0" fill="rgb(0,0,0)" opacity="1.0" />
      <rect x="301.0" y="521.0" width="18.0" height="18.0" fill="rgb(0,0,0)" opacity="1.0" />
      <rect x="341.0" y="521.0" width="18.0" height="18.0" fill="rgb(0,0,0)" opacity="1.0" />
      <rect x="361.0" y="521.0" width="18.0" height="18.0" fill="rgb(0,0,0)" opacity="1.0" />
      <rect x="481.0" y="521.0" width="18.0" height="18.0" fill="rgb(0,0,0)" opacity="1.0" />
      <rect x="521.0" y="521.0" width="18.0" height="18.0" fill="rgb(0,0,0)" opacity="1.0" />
      <rect x="581.0" y="521.0" width="18.0" height="18.0" fill="rgb(0,0,0)" opacity="1.0" />
      <rect x="601.0" y="521.0" width="18.0" height="18.0" fill="rgb(0,0,0)" opacity="1.0" />
      <rect x="641.0" y="521.0" width="18.0" height="18.0" fill="rgb(0,0,0)" opacity="1.0" />
      <rect x="661.0" y="521.0" width="18.0" height="18.0" fill="rgb(0,0,0)" opacity="1.0" />
      <rect x="701.0" y="521.0" width="18.0" height="18.0" fill="rgb(0,0,0)" opacity="1.0" />
      <rect x="721.0" y="521.0" width="18.0" height="18.0" fill="rgb(0,0,0)" opacity="1.0" />
      <rect x="81.0" y="541.0" width="18.0" height="18.0" fill="rgb(0,0,0)" opacity="1.0" />
      <rect x="121.0" y="541.0" width="18.0" height="18.0" fill="rgb(0,0,0)" opacity="1.0" />
      <rect x="141.0" y="541.0" width="18.0" height="18.0" fill="rgb(0,0,0)" opacity="1.0" />
      <rect x="161.0" y="541.0" width="18.0" height="18.0" fill="rgb(0,0,0)" opacity="1.0" />
      <rect x="181.0" y="541.0" width="18.0" height="18.0" fill="rgb(0,0,0)" opacity="1.0" />
      <rect x="301.0" y="541.0" width="18.0" height="18.0" fill="rgb(0,0,0)" opacity="1.0" />
      <rect x="321.0" y="541.0" width="18.0" height="18.0" fill="rgb(0,0,0)" opacity="1.0" />
      <rect x="341.0" y="541.0" width="18.0" height="18.0" fill="rgb(0,0,0)" opacity="1.0" />
      <rect x="361.0" y="541.0" width="18.0" height="18.0" fill="rgb(0,0,0)" opacity="1.0" />
      <rect x="421.0" y="541.0" width="18.0" height="18.0" fill="rgb(0,0,0)" opacity="1.0" />
      <rect x="441.0" y="541.0" width="18.0" height="18.0" fill="rgb(0,0,0)" opacity="1.0" />
      <rect x="501.0" y="541.0" width="18.0" height="18.0" fill="rgb(0,0,0)" opacity="1.0" />
      <rect x="581.0" y="541.0" width="18.0" height="18.0" fill="rgb(0,0,0)" opacity="1.0" />
      <rect x="601.0" y="541.0" width="18.0" height="18.0" fill="rgb(0,0,0)" opacity="1.0" />
      <rect x="621.0" y="541.0" width="18.0" height="18.0" fill="rgb(0,0,0)" opacity="1.0" />
      <rect x="641.0" y="541.0" width="18.0" height="18.0" fill="rgb(0,0,0)" opacity="1.0" />
      <rect x="661.0" y="541.0" width="18.0" height="18.0" fill="rgb(0,0,0)" opacity="1.0" />
      <rect x="681.0" y="541.0" width="18.0" height="18.0" fill="rgb(0,0,0)" opacity="1.0" />
      <rect x="721.0" y="541.0" width="18.0" height="18.0" fill="rgb(0,0,0)" opacity="1.0" />
      <rect x="81.0" y="561.0" width="18.0" height="18.0" fill="rgb(0,0,0)" opacity="1.0" />
      <rect x="101.0" y="561.0" width="18.0" height="18.0" fill="rgb(0,0,0)" opacity="1.0" />
      <rect x="121.0" y="561.0" width="18.0" height="18.0" fill="rgb(0,0,0)" opacity="1.0" />
      <rect x="141.0" y="561.0" width="18.0" height="18.0" fill="rgb(0,0,0)" opacity="1.0" />
      <rect x="201.0" y="561.0" width="18.0" height="18.0" fill="rgb(0,0,0)" opacity="1.0" />
      <rect x="221.0" y="561.0" width="18.0" height="18.0" fill="rgb(0,0,0)" opacity="1.0" />
      <rect x="241.0" y="561.0" width="18.0" height="18.0" fill="rgb(0,0,0)" opacity="1.0" />
      <rect x="281.0" y="561.0" width="18.0" height="18.0" fill="rgb(0,0,0)" opacity="1.0" />
      <rect x="301.0" y="561.0" width="18.0" height="18.0" fill="rgb(0,0,0)" opacity="1.0" />
      <rect x="321.0" y="561.0" width="18.0" height="18.0" fill="rgb(0,0,0)" opacity="1.0" />
      <rect x="341.0" y="561.0" width="18.0" height="18.0" fill="rgb(0,0,0)" opacity="1.0" />
      <rect x="381.0" y="561.0" width="18.0" height="18.0" fill="rgb(0,0,0)" opacity="1.0" />
      <rect x="461.0" y="561.0" width="18.0" height="18.0" fill="rgb(0,0,0)" opacity="1.0" />
      <rect x="501.0" y="561.0" width="18.0" height="18.0" fill="rgb(0,0,0)" opacity="1.0" />
      <rect x="521.0" y="561.0" width="18.0" height="18.0" fill="rgb(0,0,0)" opacity="1.0" />
      <rect x="541.0" y="561.0" width="18.0" height="18.0" fill="rgb(0,0,0)" opacity="1.0" />
      <rect x="561.0" y="561.0" width="18.0" height="18.0" fill="rgb(0,0,0)" opacity="1.0" />
      <rect x="581.0" y="561.0" width="18.0" height="18.0" fill="rgb(0,0,0)" opacity="1.0" />
      <rect x="601.0" y="561.0" width="18.0" height="18.0" fill="rgb(0,0,0)" opacity="1.0" />
      <rect x="621.0" y="561.0" width="18.0" height="18.0" fill="rgb(0,0,0)" opacity="1.0" />
      <rect x="641.0" y="561.0" width="18.0" height="18.0" fill="rgb(0,0,0)" opacity="1.0" />
      <rect x="681.0" y="561.0" width="18.0" height="18.0" fill="rgb(0,0,0)" opacity="1.0" />
      <rect x="721.0" y="561.0" width="18.0" height="18.0" fill="rgb(0,0,0)" opacity="1.0" />
      <rect x="241.0" y="581.0" width="18.0" height="18.0" fill="rgb(0,0,0)" opacity="1.0" />
      <rect x="261.0" y="581.0" width="18.0" height="18.0" fill="rgb(0,0,0)" opacity="1.0" />
      <rect x="301.0" y="581.0" width="18.0" height="18.0" fill="rgb(0,0,0)" opacity="1.0" />
      <rect x="321.0" y="581.0" width="18.0" height="18.0" fill="rgb(0,0,0)" opacity="1.0" />
      <rect x="341.0" y="581.0" width="18.0" height="18.0" fill="rgb(0,0,0)" opacity="1.0" />
      <rect x="381.0" y="581.0" width="18.0" height="18.0" fill="rgb(0,0,0)" opacity="1.0" />
      <rect x="401.0" y="581.0" width="18.0" height="18.0" fill="rgb(0,0,0)" opacity="1.0" />
      <rect x="421.0" y="581.0" width="18.0" height="18.0" fill="rgb(0,0,0)" opacity="1.0" />
      <rect x="481.0" y="581.0" width="18.0" height="18.0" fill="rgb(0,0,0)" opacity="1.0" />
      <rect x="501.0" y="581.0" width="18.0" height="18.0" fill="rgb(0,0,0)" opacity="1.0" />
      <rect x="521.0" y="581.0" width="18.0" height="18.0" fill="rgb(0,0,0)" opacity="1.0" />
      <rect x="541.0" y="581.0" width="18.0" height="18.0" fill="rgb(0,0,0)" opacity="1.0" />
      <rect x="561.0" y="581.0" width="18.0" height="18.0" fill="rgb(0,0,0)" opacity="1.0" />
      <rect x="641.0" y="581.0" width="18.0" height="18.0" fill="rgb(0,0,0)" opacity="1.0" />
      <rect x="661.0" y="581.0" width="18.0" height="18.0" fill="rgb(0,0,0)" opacity="1.0" />
      <rect x="681.0" y="581.0" width="18.0" height="18.0" fill="rgb(0,0,0)" opacity="1.0" />
      <rect x="241.0" y="601.0" width="18.0" height="18.0" fill="rgb(0,0,0)" opacity="1.0" />
      <rect x="281.0" y="601.0" width="18.0" height="18.0" fill="rgb(0,0,0)" opacity="1.0" />
      <rect x="321.0" y="601.0" width="18.0" height="18.0" fill="rgb(0,0,0)" opacity="1.0" />
      <rect x="361.0" y="601.0" width="18.0" height="18.0" fill="rgb(0,0,0)" opacity="1.0" />
      <rect x="381.0" y="601.0" width="18.0" height="18.0" fill="rgb(0,0,0)" opacity="1.0" />
      <rect x="401.0" y="601.0" width="18.0" height="18.0" fill="rgb(0,0,0)" opacity="1.0" />
      <rect x="421.0" y="601.0" width="18.0" height="18.0" fill="rgb(0,0,0)" opacity="1.0" />
      <rect x="441.0" y="601.0" width="18.0" height="18.0" fill="rgb(0,0,0)" opacity="1.0" />
      <rect x="481.0" y="601.0" width="18.0" height="18.0" fill="rgb(0,0,0)" opacity="1.0" />
      <rect x="541.0" y="601.0" width="18.0" height="18.0" fill="rgb(0,0,0)" opacity="1.0" />
      <rect x="561.0" y="601.0" width="18.0" height="18.0" fill="rgb(0,0,0)" opacity="1.0" />
      <rect x="601.0" y="601.0" width="18.0" height="18.0" fill="rgb(0,0,0)" opacity="1.0" />
      <rect x="641.0" y="601.0" width="18.0" height="18.0" fill="rgb(0,0,0)" opacity="1.0" />
      <rect x="721.0" y="601.0" width="18.0" height="18.0" fill="rgb(0,0,0)" opacity="1.0" />
      <rect x="261.0" y="621.0" width="18.0" height="18.0" fill="rgb(0,0,0)" opacity="1.0" />
      <rect x="281.0" y="621.0" width="18.0" height="18.0" fill="rgb(0,0,0)" opacity="1.0" />
      <rect x="321.0" y="621.0" width="18.0" height="18.0" fill="rgb(0,0,0)" opacity="1.0" />
      <rect x="461.0" y="621.0" width="18.0" height="18.0" fill="rgb(0,0,0)" opacity="1.0" />
      <rect x="481.0" y="621.0" width="18.0" height="18.0" fill="rgb(0,0,0)" opacity="1.0" />
      <rect x="501.0" y="621.0" width="18.0" height="18.0" fill="rgb(0,0,0)" opacity="1.0" />
      <rect x="521.0" y="621.0" width="18.0" height="18.0" fill="rgb(0,0,0)" opacity="1.0" />
      <rect x="561.0" y="621.0" width="18.0" height="18.0" fill="rgb(0,0,0)" opacity="1.0" />
      <rect x="641.0" y="621.0" width="18.0" height="18.0" fill="rgb(0,0,0)" opacity="1.0" />
      <rect x="661.0" y="621.0" width="18.0" height="18.0" fill="rgb(0,0,0)" opacity="1.0" />
      <rect x="681.0" y="621.0" width="18.0" height="18.0" fill="rgb(0,0,0)" opacity="1.0" />
      <rect x="241.0" y="641.0" width="18.0" height="18.0" fill="rgb(0,0,0)" opacity="1.0" />
      <rect x="261.0" y="641.0" width="18.0" height="18.0" fill="rgb(0,0,0)" opacity="1.0" />
      <rect x="441.0" y="641.0" width="18.0" height="18.0" fill="rgb(0,0,0)" opacity="1.0" />
      <rect x="501.0" y="641.0" width="18.0" height="18.0" fill="rgb(0,0,0)" opacity="1.0" />
      <rect x="521.0" y="641.0" width="18.0" height="18.0" fill="rgb(0,0,0)" opacity="1.0" />
      <rect x="541.0" y="641.0" width="18.0" height="18.0" fill="rgb(0,0,0)" opacity="1.0" />
      <rect x="561.0" y="641.0" width="18.0" height="18.0" fill="rgb(0,0,0)" opacity="1.0" />
      <rect x="581.0" y="641.0" width="18.0" height="18.0" fill="rgb(0,0,0)" opacity="1.0" />
      <rect x="601.0" y="641.0" width="18.0" height="18.0" fill="rgb(0,0,0)" opacity="1.0" />
      <rect x="621.0" y="641.0" width="18.0" height="18.0" fill="rgb(0,0,0)" opacity="1.0" />
      <rect x="641.0" y="641.0" width="18.0" height="18.0" fill="rgb(0,0,0)" opacity="1.0" />
      <rect x="681.0" y="641.0" width="18.0" height="18.0" fill="rgb(0,0,0)" opacity="1.0" />
      <rect x="721.0" y="641.0" width="18.0" height="18.0" fill="rgb(0,0,0)" opacity="1.0" />
      <rect x="241.0" y="661.0" width="18.0" height="18.0" fill="rgb(0,0,0)" opacity="1.0" />
      <rect x="321.0" y="661.0" width="18.0" height="18.0" fill="rgb(0,0,0)" opacity="1.0" />
      <rect x="341.0" y="661.0" width="18.0" height="18.0" fill="rgb(0,0,0)" opacity="1.0" />
      <rect x="361.0" y="661.0" width="18.0" height="18.0" fill="rgb(0,0,0)" opacity="1.0" />
      <rect x="401.0" y="661.0" width="18.0" height="18.0" fill="rgb(0,0,0)" opacity="1.0" />
      <rect x="521.0" y="661.0" width="18.0" height="18.0" fill="rgb(0,0,0)" opacity="1.0" />
      <rect x="541.0" y="661.0" width="18.0" height="18.0" fill="rgb(0,0,0)" opacity="1.0" />
      <rect x="581.0" y="661.0" width="18.0" height="18.0" fill="rgb(0,0,0)" opacity="1.0" />
      <rect x="641.0" y="661.0" width="18.0" height="18.0" fill="rgb(0,0,0)" opacity="1.0" />
      <rect x="681.0" y="661.0" width="18.0" height="18.0" fill="rgb(0,0,0)" opacity="1.0" />
      <rect x="701.0" y="661.0" width="18.0" height="18.0" fill="rgb(0,0,0)" opacity="1.0" />
      <rect x="281.0" y="681.0" width="18.0" height="18.0" fill="rgb(0,0,0)" opacity="1.0" />
      <rect x="301.0" y="681.0" width="18.0" height="18.0" fill="rgb(0,0,0)" opacity="1.0" />
      <rect x="361.0" y="681.0" width="18.0" height="18.0" fill="rgb(0,0,0)" opacity="1.0" />
      <rect x="401.0" y="681.0" width="18.0" height="18.0" fill="rgb(0,0,0)" opacity="1.0" />
      <rect x="421.0" y="681.0" width="18.0" height="18.0" fill="rgb(0,0,0)" opacity="1.0" />
      <rect x="461.0" y="681.0" width="18.0" height="18.0" fill="rgb(0,0,0)" opacity="1.0" />
      <rect x="521.0" y="681.0" width="18.0" height="18.0" fill="rgb(0,0,0)" opacity="1.0" />
      <rect x="561.0" y="681.0" width="18.0" height="18.0" fill="rgb(0,0,0)" opacity="1.0" />
      <rect x="581.0" y="681.0" width="18.0" height="18.0" fill="rgb(0,0,0)" opacity="1.0" />
      <rect x="601.0" y="681.0" width="18.0" height="18.0" fill="rgb(0,0,0)" opacity="1.0" />
      <rect x="621.0" y="681.0" width="18.0" height="18.0" fill="rgb(0,0,0)" opacity="1.0" />
      <rect x="661.0" y="681.0" width="18.0" height="18.0" fill="rgb(0,0,0)" opacity="1.0" />
      <rect x="701.0" y="681.0" width="18.0" height="18.0" fill="rgb(0,0,0)" opacity="1.0" />
      <rect x="721.0" y="681.0" width="18.0" height="18.0" fill="rgb(0,0,0)" opacity="1.0" />
      <rect x="301.0" y="701.0" width="18.0" height="18.0" fill="rgb(0,0,0)" opacity="1.0" />
      <rect x="341.0" y="701.0" width="18.0" height="18.0" fill="rgb(0,0,0)" opacity="1.0" />
      <rect x="361.0" y="701.0" width="18.0" height="18.0" fill="rgb(0,0,0)" opacity="1.0" />
      <rect x="421.0" y="701.0" width="18.0" height="18.0" fill="rgb(0,0,0)" opacity="1.0" />
      <rect x="581.0" y="701.0" width="18.0" height="18.0" fill="rgb(0,0,0)" opacity="1.0" />
      <rect x="601.0" y="701.0" width="18.0" height="18.0" fill="rgb(0,0,0)" opacity="1.0" />
      <rect x="641.0" y="701.0" width="18.0" height="18.0" fill="rgb(0,0,0)" opacity="1.0" />
      <rect x="661.0" y="701.0" width="18.0" height="18.0" fill="rgb(0,0,0)" opacity="1.0" />
      <rect x="261.0" y="721.0" width="18.0" height="18.0" fill="rgb(0,0,0)" opacity="1.0" />
      <rect x="301.0" y="721.0" width="18.0" height="18.0" fill="rgb(0,0,0)" opacity="1.0" />
      <rect x="381.0" y="721.0" width="18.0" height="18.0" fill="rgb(0,0,0)" opacity="1.0" />
      <rect x="481.0" y="721.0" width="18.0" height="18.0" fill="rgb(0,0,0)" opacity="1.0" />
      <rect x="501.0" y="721.0" width="18.0" height="18.0" fill="rgb(0,0,0)" opacity="1.0" />
      <rect x="541.0" y="721.0" width="18.0" height="18.0" fill="rgb(0,0,0)" opacity="1.0" />
      <rect x="581.0" y="721.0" width="18.0" height="18.0" fill="rgb(0,0,0)" opacity="1.0" />
      <rect x="601.0" y="721.0" width="18.0" height="18.0" fill="rgb(0,0,0)" opacity="1.0" />
      <rect x="641.0" y="721.0" width="18.0" height="18.0" fill="rgb(0,0,0)" opacity="1.0" />
      <rect x="661.0" y="721.0" width="18.0" height="18.0" fill="rgb(0,0,0)" opacity="1.0" />
      <path
        d="M80,80 h140 v140 h-140 Z M100.0,100.0 h100.0 v100.0 h-100.0 Z"
        fill-rule="evenodd"
        fill="rgb(0,0,0)"
        opacity="1.0"
        shape-rendering="crispEdges"
      />
      <path
        d="M600,80 h140 v140 h-140 Z M620.0,100.0 h100.0 v100.0 h-100.0 Z"
        fill-rule="evenodd"
        fill="rgb(0,0,0)"
        opacity="1.0"
        shape-rendering="crispEdges"
      />
      <rect x="120" y="120" width="60" height="60" fill="rgb(0,0,0)" opacity="1.0" shape-rendering="crispEdges" />
      <rect x="640" y="120" width="60" height="60" fill="rgb(0,0,0)" opacity="1.0" shape-rendering="crispEdges" />
      <path
        d="M80,600 h140 v140 h-140 Z M100.0,620.0 h100.0 v100.0 h-100.0 Z"
        fill-rule="evenodd"
        fill="rgb(0,0,0)"
        opacity="1.0"
        shape-rendering="crispEdges"
      />
      <rect x="120" y="640" width="60" height="60" fill="rgb(0,0,0)" opacity="1.0" shape-rendering="crispEdges" />
      <g transform="translate(300,300) scale(3.5)">
        <polyline fill="black" points="61.5 16 42 48 22.3 16" />
        <polygon fill="black" points="22.1 16 2.5 48 22.1 48 22.1 16" />
      </g>
    </svg>
  </g>
</svg>
