      <svg
        width="433"
        height="64"
        viewBox="0 0 433 64"
        fill="none"
        xmlns="http://www.w3.org/2000/svg"
      >
        <path
          d="M157.38 18.862C157.38 22.2807 156.436 27.8804 148.538 27.8804C140.64 27.8804 139.755 25.4637 139.755 19.6282V17.3294H145.06V18.5083C145.06 21.1018 145.709 22.9291 148.42 22.9291C151.131 22.9291 151.485 20.4534 151.485 18.5673V0.648384H157.321V18.862H157.38Z"
          fill="white"></path>
        <path
          d="M169.817 0.648384H175.829L185.79 27.232H179.719L177.715 21.3376H167.754L165.691 27.232H159.796L169.817 0.648384ZM169.227 16.9758H176.124L172.764 7.19113H172.705L169.227 16.9758Z"
          fill="white"></path>
        <path
          d="M188.089 0.648384H199.583C206.48 0.648384 211.667 4.95127 211.667 13.7928C211.667 22.6344 207.717 27.232 199.583 27.232H188.089V0.648384ZM193.925 22.3396H199.112C202.471 22.3396 205.713 20.2766 205.713 14.3823C205.713 8.48789 203.827 5.59965 198.051 5.59965H193.866V22.3396H193.925Z"
          fill="white"></path>
        <path
          d="M215.675 0.648384H235.539V5.54071H221.51V11.2582H234.419V15.7969H221.51V22.3396H235.834V27.232H215.675V0.648384Z"
          fill="white"></path>
        <path
          d="M262.535 27.232H255.933L247.269 0.648384H253.281L259.175 19.3335H259.234L265.246 0.648384H271.259L262.417 27.232H262.535Z"
          fill="white"></path>
        <path
          d="M273.675 0.648384H293.539V5.54071H279.511V11.2582H292.419V15.7969H279.511V22.3396H293.834V27.232H273.616V0.648384H273.675Z"
          fill="white"></path>
        <path
          d="M297.842 0.648384H303.678V22.3396H316.645V27.232H297.842V0.648384Z"
          fill="white"></path>
        <path
          d="M331.853 0C340.105 0 344.938 6.13014 344.938 14.0286C344.938 21.927 340.105 27.8214 331.853 27.8214C323.601 27.8214 318.767 21.6913 318.767 14.0286C318.767 6.36591 323.601 0 331.853 0ZM331.853 22.9291C337.099 22.9291 339.103 18.4494 339.103 14.0286C339.103 9.60781 337.099 4.89232 331.853 4.89232C326.607 4.89232 324.603 9.37204 324.603 14.0286C324.603 18.6851 326.607 22.9291 331.853 22.9291Z"
          fill="white"></path>
        <path
          d="M366.629 9.54887C366.276 6.89641 363.741 4.89232 360.794 4.89232C355.548 4.89232 353.544 9.37204 353.544 14.0286C353.544 18.6851 355.548 22.9291 360.794 22.9291C366.04 22.9291 366.394 20.4534 366.806 16.9758H372.465C371.875 23.5775 367.278 27.8803 360.794 27.8803C354.31 27.8803 347.709 21.7502 347.709 14.0875C347.709 6.42486 352.542 0.0589447 360.794 0.0589447C369.046 0.0589447 371.581 3.47768 372.288 9.60781H366.629V9.54887Z"
          fill="white"></path>
        <path
          d="M376.532 0.648384H382.367V27.232H376.532V0.648384Z"
          fill="white"></path>
        <path
          d="M393.39 5.54071H385.432V0.648384H407.242V5.54071H399.284V27.232H393.449V5.54071H393.39Z"
          fill="white"></path>
        <path
          d="M417.203 16.8579L407.418 0.589439H414.02L420.268 11.0814L426.457 0.589439H433L423.156 16.9758V27.173H417.321V16.7989L417.203 16.8579Z"
          fill="white"></path>
        <path
          d="M143.174 53.8745C143.174 57.4111 145.944 58.7668 149.068 58.7668C152.193 58.7668 154.256 58.1774 154.256 55.466C154.256 52.7546 150.247 52.1062 146.357 51.0452C142.408 49.9842 138.4 48.4517 138.4 43.5004C138.4 38.5491 143.528 35.4251 148.361 35.4251C153.195 35.4251 159.03 37.8418 159.03 43.972H153.371C153.195 40.789 150.896 39.9638 148.125 39.9638C145.355 39.9638 144.117 40.7301 144.117 42.9699C144.117 45.2098 145.355 45.2687 152.075 46.9781C154.02 47.4496 159.973 48.6875 159.973 54.6997C159.973 60.712 156.142 63.2465 148.892 63.2465C141.642 63.2465 137.516 60.3583 137.574 53.7566H143.233L143.174 53.8745Z"
          fill="white"></path>
        <path
          d="M185.908 52.6956C185.908 59.8867 181.664 63.3644 174.532 63.3644C167.4 63.3644 163.215 59.8867 163.215 52.6956V36.1324H169.05V52.6956C169.05 55.5839 169.817 58.4721 174.532 58.4721C179.248 58.4721 180.073 56.6448 180.073 52.6956V36.1324H185.908V52.6956Z"
          fill="white"></path>
        <path
          d="M190.977 36.1324H199.23L205.478 54.405H205.537L211.431 36.1324H219.683V62.716H214.201V43.8541H214.142L207.6 62.716H203.12L196.577 44.0309H196.518V62.716H191.036V36.1324H190.977Z"
          fill="white"></path>
        <path
          d="M224.752 36.1324H233.004L239.252 54.405H239.311L245.206 36.1324H253.458V62.716H247.976V43.8541H247.917L241.374 62.716H236.895L230.352 44.0309H230.293V62.716H224.811V36.1324H224.752Z"
          fill="white"></path>
        <path d="M258.586 36.1324H264.421V62.716H258.586V36.1324Z" fill="white"
        ></path>
        <path
          d="M275.444 41.0248H267.486V36.1324H289.295V41.0248H281.338V62.716H275.503V41.0248H275.444Z"
          fill="white"></path>
        <path
          d="M318.649 62.716H301.497C301.674 54.9944 309.631 53.0493 314.052 48.6285C315.466 47.1549 316.233 45.7992 316.233 43.7362C316.233 40.3174 313.58 38.4313 310.397 38.4313C307.214 38.4313 304.444 41.85 304.503 45.6813H302.145C302.027 40.3175 304.857 36.4272 310.515 36.4272C316.174 36.4272 318.59 38.9028 318.59 43.7362C318.59 48.5696 315.407 50.8094 312.048 52.9903C309.513 54.6997 304.857 56.9985 304.208 60.5351H318.708V62.716H318.649Z"
          fill="white"></path>
        <path
          d="M340.282 49.8663C340.282 55.9965 338.808 63.3055 331.204 63.3055C323.601 63.3055 322.127 55.9965 322.127 49.8663C322.127 43.7362 323.601 36.4272 331.204 36.4272C338.808 36.4272 340.282 43.7362 340.282 49.8663ZM324.426 49.8663C324.426 54.405 325.192 61.3603 331.145 61.3603C337.099 61.3603 337.865 54.405 337.865 49.8663C337.865 45.3277 337.099 38.4313 331.145 38.4313C325.192 38.4313 324.426 45.3866 324.426 49.8663Z"
          fill="white"></path>
        <path
          d="M360.087 62.716H342.934C343.111 54.9944 351.068 53.0493 355.489 48.6285C356.904 47.1549 357.67 45.7992 357.67 43.7362C357.67 40.3174 355.018 38.4313 351.835 38.4313C348.652 38.4313 345.881 41.85 345.94 45.6813H343.583C343.465 40.3175 346.294 36.4272 351.952 36.4272C357.611 36.4272 360.028 38.9028 360.028 43.7362C360.028 48.5696 356.845 50.8094 353.485 52.9903C350.95 54.6997 346.294 56.9985 345.646 60.5351H360.146V62.716H360.087Z"
          fill="white"></path>
        <path
          d="M365.981 55.2891C366.099 58.8847 368.81 61.3014 372.406 61.3014C376.001 61.3014 378.949 58.0006 378.949 54.1692C378.949 50.3379 376.178 47.3907 372.288 47.3907C368.398 47.3907 367.749 48.5106 366.453 50.4558H364.449L366.983 36.9577H380.01V39.1386H368.634L366.983 47.8033H367.042C368.339 46.3297 370.52 45.4456 372.583 45.4456C377.947 45.4456 381.365 49.2179 381.365 54.4639C381.365 59.7099 377.298 63.3055 372.288 63.3055C367.278 63.3055 363.859 60.2404 363.741 55.2891H366.099H365.981Z"
          fill="white"></path>
        <path
          d="M130.855 0.589439L87.5903 61.9498L43.8541 0.589439"
          fill="white"></path>
        <path d="M43.3236 0.471542L0 61.9498H43.3236V0.471542Z" fill="white"
        ></path>
      </svg>