<?xml version="1.0" encoding="UTF-8"?>
<svg width="455.86" height="128" version="1.1" viewBox="0 0 120.61 33.867" xmlns="http://www.w3.org/2000/svg"><path d="m13.317 33.867h7.8493l-0.17639-10.142 9.084 5.6444 4.4097-6.6146-9.9659-5.8208 9.9659-5.909-4.3215-6.5264-9.1722 5.7326 0.17639-10.231h-7.8493l0.17639 10.319-9.1722-5.8208-4.3215 6.5264 9.9659 5.909-9.9659 5.8208 4.2333 6.6146 9.2604-5.7326z" fill="#fe7802" stroke-width="1.4831" aria-label="*"/><g fill="#fff"><path d="m38.629 33.866h25.545v-6.1927h-18.53v-27.674h-7.0151z" stroke-width="1.4645" aria-label="List"/><path d="m71.047 7.5474c2.0804 0 3.7737-1.7417 3.7737-3.7737 0-2.0804-1.6933-3.7737-3.7737-3.7737-2.0804 0-3.7737 1.6933-3.7737 3.7737 0 2.032 1.6934 3.7737 3.7737 3.7737z" stroke-width="1.4645"/><path d="m89.35 33.866c6.3379 0 11.031-3.5318 11.031-8.3214 0-3.9188-2.7577-6.483-7.6925-7.2087l-4.8381-0.72569c-2.4674-0.33886-3.435-1.016-3.435-2.419 0-1.4514 1.5966-2.4674 3.9672-2.4674 2.5642 0 5.0316 0.77411 7.7892 2.4674l3.1931-4.3059c-3.1447-2.0804-6.6765-3.1447-10.353-3.1447-6.4346 0-10.499 3.1447-10.499 7.9828 0 4.0639 2.6609 6.6281 7.6441 7.3539l4.8381 0.72569c2.1771 0.3385 3.1447 1.0644 3.1447 2.3706 0 1.6449-1.9352 2.7093-4.8864 2.7093-2.6609 0-5.2251-0.9192-8.1763-2.9028l-3.2899 4.4026c2.8545 2.2739 6.9668 3.4834 11.563 3.4834z" stroke-width="1.4645"/><path d="m115.29 33.866c1.4514 0 3.7253-0.29019 5.1284-0.72569v-5.467c-1.3063 0.43544-2.2739 0.58056-3.5318 0.58056-2.5642 0-3.4834-0.87082-3.4834-3.2415v-11.224h7.2087v-5.5154h-7.2087v-7.9344l-6.6281 1.4998v6.4346h-5.1767v5.5154h5.1767v12.579c0 4.9348 2.9028 7.499 8.515 7.499z" stroke-width="1.4645"/><path d="m67.733 33.867h6.6282v-21.888h-6.6282z" stroke-width="1.4645"/></g></svg>
