<svg width="53" height="54" viewBox="0 0 53 54" fill="none" xmlns="http://www.w3.org/2000/svg">
<path d="M24.4463 53.0395C12.7958 53.0395 6.83234 52.9605 3.47541 49.4456C0 45.8517 0 39.3748 0 26.5395C0 13.7042 0 7.22727 3.47541 3.63338C6.95082 3.76637e-07 13.1118 0 25.4337 0H26.5C52.2891 0 53 0.750373 53 26.5C53 52.2496 52.2496 53 26.5 53H24.4069L24.4463 53.0395Z" fill="black"/>
<path d="M10.7817 30.0939C10.7817 31.4367 10.4262 32.503 9.71535 33.2928L11.4925 34.5171C12.5194 33.3718 13.0328 31.9106 13.0328 30.0939V21.7608H10.7422V30.0939H10.7817Z" fill="white"/>
<path d="M18.4039 21.8003C17.4165 21.8003 16.4292 21.9583 15.4814 22.2347V24.0514C16.4687 23.775 17.4165 23.617 18.4039 23.617C19.9441 23.617 20.734 24.0119 20.734 24.8413V25.4337C20.1416 25.3152 19.4307 25.2757 18.6408 25.2757C16.0343 25.2757 14.731 26.184 14.731 28.0402C14.731 29.8964 15.9553 30.8443 18.3644 30.8443C20.7735 30.8443 20.1021 30.6468 20.8525 30.2124L21.8398 30.8443H22.9851V24.8018C22.9851 22.8271 21.4449 21.8398 18.3644 21.8398L18.4039 21.8003ZM20.7735 28.2772C20.1416 28.7511 19.3517 28.9881 18.4039 28.9881C17.456 28.9881 17.0216 28.6326 17.0216 27.9612C17.0216 27.2899 17.5745 26.9344 18.6408 26.9344C19.7072 26.9344 20.1811 26.9739 20.734 27.0924V28.2772H20.7735Z" fill="white"/>
<path d="M31.1997 22.1952C30.5678 21.9188 29.8569 21.7608 29.067 21.7608C26.1445 21.7608 24.7228 23.1826 24.7228 26.0656C24.7228 28.9486 26.2235 30.7653 29.2645 30.7653C32.3055 30.7653 32.108 30.5678 33.4903 30.2124V18.4828H31.1997V22.1557V22.1952ZM31.1997 28.5141C30.6073 28.7511 29.8964 28.8301 29.1065 28.8301C27.6848 28.8301 26.9739 27.8823 26.9739 26.0261C26.9739 24.1699 27.6848 23.6565 29.1065 23.6565C30.5283 23.6565 30.6468 23.8144 31.1997 24.1304V28.5141Z" fill="white"/>
<path d="M39.5723 21.8003C36.5708 21.8003 35.0701 23.2615 35.0701 26.184C35.0701 29.1066 36.6893 30.8048 39.9672 30.8048C43.2452 30.8048 42.2578 30.7258 43.0477 30.5678V28.7511C42.1394 28.9091 41.231 28.9881 40.3227 28.9881C38.348 28.9881 37.3607 28.3957 37.3607 27.1714H43.2452C43.7586 23.5775 42.5343 21.8003 39.5723 21.8003ZM37.3607 25.5127C37.4791 24.2094 38.111 23.5775 39.3353 23.5775C40.5596 23.5775 41.231 24.2094 41.152 25.5127H37.4002H37.3607Z" fill="white"/>
</svg>
