<?xml version="1.0" encoding="UTF-8"?>
<svg id="Layer_2" data-name="Layer 2" xmlns="http://www.w3.org/2000/svg" viewBox="0 0 222.27 141.94">
  <defs>
    <style>
      .cls-1 {
        fill: #fff;
      }
    </style>
  </defs>
  <g id="Layer_1-2" data-name="Layer 1">
    <g>
      <g>
        <path class="cls-1" d="M10.13,136.75c0,1.97-.54,5.18-5.1,5.18-2.55,0-5.04-1.39-5.04-4.73v-1.33h3.04v.69c0,1.48.36,2.55,1.95,2.55,1.78,0,1.78-1.44,1.78-2.51v-10.33h3.36v10.48Z"/>
        <path class="cls-1" d="M17.27,126.28h3.45l5.72,15.3h-3.49l-1.16-3.41h-5.72l-1.2,3.41h-3.41l5.81-15.3ZM16.95,135.66h3.96l-1.93-5.61h-.04l-1.99,5.61Z"/>
        <path class="cls-1" d="M27.77,126.28h6.6c3.96,0,6.94,2.49,6.94,7.56,0,4.43-2.27,7.73-6.94,7.73h-6.6v-15.3ZM31.14,138.74h3c1.95,0,3.81-1.2,3.81-4.58,0-3.08-1.07-5.06-4.41-5.06h-2.4v9.64Z"/>
        <path class="cls-1" d="M43.65,126.28h11.44v2.83h-8.08v3.28h7.41v2.61h-7.41v3.75h8.25v2.83h-11.61v-15.3Z"/>
        <path class="cls-1" d="M70.61,141.57h-3.79l-4.97-15.3h3.47l3.41,10.75h.04l3.45-10.75h3.47l-5.08,15.3Z"/>
        <path class="cls-1" d="M77,126.28h11.44v2.83h-8.08v3.28h7.41v2.61h-7.41v3.75h8.25v2.83h-11.61v-15.3Z"/>
        <path class="cls-1" d="M90.88,126.28h3.36v12.47h7.46v2.83h-10.82v-15.3Z"/>
        <path class="cls-1" d="M110.45,125.91c4.73,0,7.52,3.54,7.52,8.08s-2.79,7.95-7.52,7.95-7.52-3.54-7.52-7.95,2.79-8.08,7.52-8.08ZM110.45,139.11c3.02,0,4.16-2.57,4.16-5.12,0-2.68-1.14-5.25-4.16-5.25s-4.16,2.57-4.16,5.25,1.14,5.12,4.16,5.12Z"/>
        <path class="cls-1" d="M130.46,131.42c-.21-1.52-1.67-2.68-3.34-2.68-3.02,0-4.16,2.57-4.16,5.25s1.13,5.12,4.16,5.12c2.06,0,3.21-1.41,3.47-3.43h3.26c-.34,3.81-2.98,6.26-6.73,6.26-4.73,0-7.52-3.54-7.52-7.95s2.79-8.08,7.52-8.08c3.36,0,6.19,1.97,6.6,5.51h-3.26Z"/>
        <path class="cls-1" d="M136.14,126.28h3.36v15.3h-3.36v-15.3Z"/>
        <path class="cls-1" d="M145.85,129.1h-4.58v-2.83h12.53v2.83h-4.58v12.47h-3.36v-12.47Z"/>
        <path class="cls-1" d="M159.52,135.62l-5.63-9.34h3.79l3.58,6.04,3.56-6.04h3.75l-5.68,9.43v5.87h-3.36v-5.96Z"/>
        <path class="cls-1" d="M184.98,141.57h-9.88c.11-4.46,4.67-5.55,7.22-8.1.81-.84,1.24-1.63,1.24-2.83,0-1.95-1.54-3.06-3.36-3.06-2.46,0-3.43,1.97-3.38,4.18h-1.35c-.06-3.08,1.54-5.31,4.8-5.31,2.61,0,4.65,1.44,4.65,4.22,0,2.51-1.82,4.07-3.77,5.33-1.46.99-4.13,2.31-4.5,4.33h8.33v1.24Z"/>
        <path class="cls-1" d="M197.43,134.16c0,3.51-.86,7.73-5.23,7.73s-5.23-4.22-5.23-7.71.86-7.73,5.23-7.73,5.23,4.22,5.23,7.71ZM188.32,134.16c0,2.61.45,6.6,3.88,6.6s3.88-3.98,3.88-6.6-.45-6.58-3.88-6.58-3.88,3.98-3.88,6.58Z"/>
        <path class="cls-1" d="M208.81,141.57h-9.88c.11-4.46,4.67-5.55,7.22-8.1.81-.84,1.24-1.63,1.24-2.83,0-1.95-1.54-3.06-3.36-3.06-2.46,0-3.43,1.97-3.38,4.18h-1.35c-.06-3.08,1.54-5.31,4.8-5.31,2.61,0,4.65,1.44,4.65,4.22,0,2.51-1.82,4.07-3.77,5.33-1.46.99-4.13,2.31-4.5,4.33h8.33v1.24Z"/>
        <path class="cls-1" d="M212.19,137.29c.06,2.08,1.63,3.47,3.68,3.47,2.31,0,3.75-1.91,3.75-4.09s-1.61-3.9-3.83-3.9c-1.33,0-2.61.64-3.34,1.78h-1.16l1.46-7.78h7.5v1.24h-6.56l-.96,4.97.04.04c.75-.88,2.01-1.39,3.17-1.39,3.08,0,5.03,2.16,5.03,5.18s-2.33,5.08-5.21,5.08-4.86-1.76-4.93-4.61h1.35Z"/>
      </g>
      <g>
        <polyline class="cls-1" points="222.27 .18 148.86 104.3 74.75 .18"/>
        <polygon class="cls-1" points="73.85 0 .31 104.31 73.85 104.31 73.85 0"/>
      </g>
    </g>
  </g>
</svg>