            <svg
              width="31"
              height="31"
              viewBox="176 0 31 31"
              fill="none"
              xmlns="http://www.w3.org/2000/svg"
            >
              <path
                d="M191.972 1.5574L196.154 9.84364L204.204 10.6411C204.758 10.6872 205.17 11.1734 205.124 11.7273C205.104 11.9661 204.999 12.19 204.829 12.3586L198.204 18.9249L200.66 27.8474C200.804 28.3899 200.481 28.9464 199.939 29.0904C199.699 29.1542 199.444 29.1278 199.222 29.0161L191.06 24.9749L182.91 29.0111C182.409 29.2633 181.798 29.0612 181.546 28.5598C181.434 28.3378 181.408 28.0826 181.472 27.8424L183.928 18.9199L177.298 12.3536C176.903 11.9624 176.9 11.3253 177.292 10.9306C177.46 10.7604 177.684 10.656 177.923 10.6361L185.973 9.83865L190.149 1.5574C190.407 1.05413 191.024 0.855037 191.527 1.11272C191.718 1.21062 191.874 1.36619 191.972 1.5574Z"
                stroke="black"
                stroke-width="1.875"
                stroke-linecap="round"
                stroke-linejoin="round"></path>
            </svg>